# xmcd
#
# Track frame offsets:
# 150
# 23414
# 40238
# 58899
# 79270
# 100441
# 119522
# 132182
# 156962
# 173212
#
# Disc length: 2583 seconds
#
# Revision: 1
# Processed by: cddbd v1.5.2PL0 Copyright (c) Steve Scherf et al.
# Submitted via: CedeCatalogueitor 2.6.0.6 http://personales.ya.com/cdcatalogueitor
#
DISCID=830a150a
DTITLE=Polar - Fireflies In The Alley
DYEAR=1900
DGENRE=
TTITLE0=Charming Hotel
TTITLE1=The Hunting Bird
TTITLE2=Your Song
TTITLE3=Goin' Elsewhere
TTITLE4=Eastwood
TTITLE5=The Boxer Part 1
TTITLE6=Coronado II
TTITLE7=Stay-leave
TTITLE8=All The Music People
TTITLE9=Next Stage
EXTD=
EXTT0=
EXTT1=
EXTT2=
EXTT3=
EXTT4=
EXTT5=
EXTT6=
EXTT7=
EXTT8=
EXTT9=
PLAYORDER=
